<?xml version="1.0" encoding="utf-8"?>
<!-- Generator: Adobe Illustrator 16.0.0, SVG Export Plug-In . SVG Version: 6.00 Build 0)  -->
<!DOCTYPE svg PUBLIC "-//W3C//DTD SVG 1.1//EN" "http://www.w3.org/Graphics/SVG/1.1/DTD/svg11.dtd">
<svg version="1.1" id="Layer_1" xmlns="http://www.w3.org/2000/svg" xmlns:xlink="http://www.w3.org/1999/xlink" x="0px" y="0px"
	 width="402px" height="402px" viewBox="0 0 402 402" enable-background="new 0 0 402 402" xml:space="preserve">
<rect x="1" y="396.125" opacity="0.9" width="400" height="6"/>
<rect x="1" y="384.125" opacity="0.9" width="400" height="6"/>
<rect x="1" y="372.125" opacity="0.9" width="400" height="6"/>
<rect x="1" y="360.125" opacity="0.9" width="400" height="6"/>
<rect x="1" y="348.125" opacity="0.9" width="400" height="6"/>
<rect x="1" y="336.125" opacity="0.9" width="400" height="6"/>
<rect x="1" y="324.125" opacity="0.9" width="400" height="6"/>
<rect x="1" y="312.125" opacity="0.9" width="400" height="6"/>
<rect x="1" y="300.125" opacity="0.9" width="400" height="6"/>
<rect x="1" y="288.125" opacity="0.9" width="400" height="6"/>
<rect x="1" y="276.125" opacity="0.9" width="400" height="6"/>
<rect x="1" y="264.125" opacity="0.9" width="400" height="6"/>
<rect x="1" y="252.125" opacity="0.9" width="400" height="6"/>
<rect x="1" y="240.125" opacity="0.9" width="400" height="6"/>
<rect x="1" y="228.125" opacity="0.9" width="400" height="6"/>
<rect x="1" y="216.125" opacity="0.9" width="400" height="6"/>
<rect x="1" y="204.125" opacity="0.9" width="400" height="6"/>
<rect x="1" y="192.125" opacity="0.9" width="400" height="6"/>
<rect x="1" y="180.125" opacity="0.9" width="400" height="6"/>
<rect x="1" y="168.125" opacity="0.9" width="400" height="6"/>
<rect x="1" y="156.125" opacity="0.9" width="400" height="6"/>
<rect x="1" y="144.125" opacity="0.9" width="400" height="6"/>
<rect x="1" y="132.125" opacity="0.9" width="400" height="6"/>
<rect x="1" y="120.125" opacity="0.9" width="400" height="6"/>
<rect x="1" y="108.125" opacity="0.9" width="400" height="6"/>
<rect x="1" y="96.125" opacity="0.9" width="400" height="6"/>
<rect x="1" y="84.125" opacity="0.9" width="400" height="6"/>
<rect x="1" y="72.125" opacity="0.9" width="400" height="6"/>
<rect x="1" y="60.125" opacity="0.9" width="400" height="6"/>
<rect x="1" y="48.125" opacity="0.9" width="400" height="6"/>
<rect x="1" y="36.125" opacity="0.9" width="400" height="6"/>
<rect x="1" y="24.125" opacity="0.9" width="400" height="6"/>
<rect x="1" y="12.125" opacity="0.9" width="400" height="6"/>
<rect x="1" y="0.125" opacity="0.9" width="400" height="6"/>
</svg>
