<?xml version="1.0" encoding="utf-8"?>
<!-- Generator: Adobe Illustrator 16.0.0, SVG Export Plug-In . SVG Version: 6.00 Build 0)  -->
<!DOCTYPE svg PUBLIC "-//W3C//DTD SVG 1.1//EN" "http://www.w3.org/Graphics/SVG/1.1/DTD/svg11.dtd">
<svg version="1.1" id="Layer_1" xmlns="http://www.w3.org/2000/svg" xmlns:xlink="http://www.w3.org/1999/xlink" x="0px" y="0px"
	 width="402px" height="400px" viewBox="0 0 402 400" enable-background="new 0 0 402 400" xml:space="preserve">
<rect x="1" y="394.625" opacity="0.9" width="400" height="5.5"/>
<rect x="1" y="383.625" opacity="0.9" width="400" height="5.5"/>
<rect x="1" y="372.625" opacity="0.9" width="400" height="5.5"/>
<rect x="1" y="361.625" opacity="0.9" width="400" height="5.5"/>
<rect x="1" y="350.625" opacity="0.9" width="400" height="5.5"/>
<rect x="1" y="339.625" opacity="0.9" width="400" height="5.5"/>
<rect x="1" y="328.625" opacity="0.9" width="400" height="5.5"/>
<rect x="1" y="317.625" opacity="0.9" width="400" height="5.5"/>
<rect x="1" y="306.625" opacity="0.9" width="400" height="5.5"/>
<rect x="1" y="295.625" opacity="0.9" width="400" height="5.5"/>
<rect x="1" y="284.625" opacity="0.9" width="400" height="5.5"/>
<rect x="1" y="273.625" opacity="0.9" width="400" height="5.5"/>
<rect x="1" y="262.625" opacity="0.9" width="400" height="5.5"/>
<rect x="1" y="251.625" opacity="0.9" width="400" height="5.5"/>
<rect x="1" y="240.625" opacity="0.9" width="400" height="5.5"/>
<rect x="1" y="229.625" opacity="0.9" width="400" height="5.5"/>
<rect x="1" y="218.625" opacity="0.9" width="400" height="5.5"/>
<rect x="1" y="207.625" opacity="0.9" width="400" height="5.5"/>
<rect x="1" y="196.625" opacity="0.9" width="400" height="5.5"/>
<rect x="1" y="185.625" opacity="0.9" width="400" height="5.5"/>
<rect x="1" y="174.625" opacity="0.9" width="400" height="5.5"/>
<rect x="1" y="163.625" opacity="0.9" width="400" height="5.5"/>
<rect x="1" y="152.625" opacity="0.9" width="400" height="5.5"/>
<rect x="1" y="141.625" opacity="0.9" width="400" height="5.5"/>
<rect x="1" y="130.625" opacity="0.9" width="400" height="5.5"/>
<rect x="1" y="119.625" opacity="0.9" width="400" height="5.5"/>
<rect x="1" y="108.625" opacity="0.9" width="400" height="5.5"/>
<rect x="1" y="97.625" opacity="0.9" width="400" height="5.5"/>
<rect x="1" y="86.625" opacity="0.9" width="400" height="5.5"/>
<rect x="1" y="75.625" opacity="0.9" width="400" height="5.5"/>
<rect x="1" y="64.625" opacity="0.9" width="400" height="5.5"/>
<rect x="1" y="53.625" opacity="0.9" width="400" height="5.5"/>
<rect x="1" y="42.625" opacity="0.9" width="400" height="5.5"/>
<rect x="1" y="31.625" opacity="0.9" width="400" height="5.5"/>
<rect x="1" y="20.625" opacity="0.9" width="400" height="5.5"/>
<rect x="1" y="9.625" opacity="0.9" width="400" height="5.5"/>
<rect x="1" y="-1.375" opacity="0.9" width="400" height="5.5"/>
</svg>
